<svg width="130" height="24" viewBox="0 0 130 24" fill="none" xmlns="http://www.w3.org/2000/svg">
<path d="M129.707 24H126.41V9.47285H117.222V24H113.941V6.17578H117.222V9.32222C117.244 8.88708 117.344 8.47983 117.523 8.10047C117.702 7.70995 117.936 7.37522 118.226 7.09628C118.527 6.80619 118.873 6.58303 119.264 6.42683C119.654 6.25946 120.073 6.17578 120.519 6.17578H126.41C126.867 6.17578 127.297 6.26504 127.699 6.44356C128.1 6.61093 128.446 6.84524 128.736 7.14649C129.038 7.43659 129.272 7.78248 129.439 8.18415C129.618 8.58582 129.707 9.01539 129.707 9.47285V24Z" fill="#F3DFD8"/>
<path d="M108.435 16.7699H96.6359V20.703H108.435V24H96.6359C96.1896 24 95.7656 23.9164 95.364 23.749C94.9623 23.5705 94.6108 23.3362 94.3096 23.0461C94.0195 22.7448 93.7852 22.3934 93.6066 21.9917C93.4393 21.59 93.3556 21.1604 93.3556 20.703V9.47285C93.3556 9.01539 93.4393 8.58582 93.6066 8.18415C93.7852 7.78248 94.0195 7.43659 94.3096 7.14649C94.6108 6.84524 94.9623 6.61093 95.364 6.44356C95.7656 6.26504 96.1896 6.17578 96.6359 6.17578H105.138C105.595 6.17578 106.025 6.26504 106.427 6.44356C106.828 6.61093 107.174 6.84524 107.464 7.14649C107.766 7.43659 108 7.78248 108.167 8.18415C108.346 8.58582 108.435 9.01539 108.435 9.47285V16.7699ZM96.6359 9.47285V13.4729H105.138V9.47285H96.6359Z" fill="#F3DFD8"/>
<path d="M67.6486 3.43096C67.6486 2.96234 67.7378 2.52162 67.9163 2.10879C68.0949 1.6848 68.3403 1.32218 68.6527 1.02092C68.9652 0.708508 69.3278 0.46304 69.7406 0.284519C70.1646 0.0948396 70.6109 0 71.0795 0H84.1004C84.5691 0 85.0098 0.0948396 85.4226 0.284519C85.8466 0.46304 86.2148 0.708508 86.5272 1.02092C86.8396 1.32218 87.0851 1.6848 87.2636 2.10879C87.4421 2.52162 87.5314 2.96234 87.5314 3.43096V6.5272H84.1004V3.43096H71.0795V20.569H84.1004V14.7448H77.59V11.3138H87.5314V20.569C87.5314 21.0377 87.4421 21.484 87.2636 21.908C87.0851 22.3208 86.8396 22.6834 86.5272 22.9958C86.2148 23.3082 85.8466 23.5537 85.4226 23.7322C85.0098 23.9107 84.5691 24 84.1004 24H71.0795C70.6109 24 70.1646 23.9107 69.7406 23.7322C69.3278 23.5537 68.9652 23.3082 68.6527 22.9958C68.3403 22.6834 68.0949 22.3208 67.9163 21.908C67.7378 21.484 67.6486 21.0377 67.6486 20.569V3.43096Z" fill="#F3DFD8"/>
<path d="M63.2301 6.17578L56.7531 14.8787L63.5313 24H59.5481L54.7615 17.5565L49.9581 24H45.9749L52.7698 14.8787L46.2928 6.17578H50.2594L54.7615 12.2009L59.2468 6.17578H63.2301Z" fill="#F3DFD8"/>
<path d="M42.1924 16.7699H30.3932V20.703H42.1924V24H30.3932C29.9469 24 29.523 23.9164 29.1213 23.749C28.7196 23.5705 28.3681 23.3362 28.0669 23.0461C27.7768 22.7448 27.5425 22.3934 27.364 21.9917C27.1966 21.59 27.1129 21.1604 27.1129 20.703V9.47285C27.1129 9.01539 27.1966 8.58582 27.364 8.18415C27.5425 7.78248 27.7768 7.43659 28.0669 7.14649C28.3681 6.84524 28.7196 6.61093 29.1213 6.44356C29.523 6.26504 29.9469 6.17578 30.3932 6.17578H38.8953C39.3528 6.17578 39.7824 6.26504 40.184 6.44356C40.5857 6.61093 40.9316 6.84524 41.2217 7.14649C41.523 7.43659 41.7573 7.78248 41.9246 8.18415C42.1032 8.58582 42.1924 9.01539 42.1924 9.47285V16.7699ZM30.3932 9.47285V13.4729H38.8953V9.47285H30.3932Z" fill="#F3DFD8"/>
<path d="M3.43096 24H0V0H3.43096L17.8577 18.6109V0H21.2887V24H17.8577L3.43096 5.38912V24Z" fill="#F3DFD8"/>
</svg>
